<svg width="32" height="42" viewBox="0 0 32 42" fill="none" xmlns="http://www.w3.org/2000/svg">
<path d="M31.5 16C31.5 18.0825 30.549 20.722 29.0575 23.5577C27.5741 26.3778 25.5906 29.3287 23.5983 32.0159C21.6075 34.7013 19.6155 37.1133 18.1206 38.8544C17.3734 39.7248 16.751 40.4268 16.3157 40.9109C16.1958 41.0443 16.0902 41.161 16 41.2602C15.9098 41.161 15.8042 41.0443 15.6843 40.9109C15.249 40.4268 14.6266 39.7248 13.8794 38.8544C12.3845 37.1133 10.3925 34.7013 8.40166 32.0159C6.40944 29.3287 4.4259 26.3778 2.94252 23.5577C1.45098 20.722 0.5 18.0825 0.5 16C0.5 7.43959 7.43959 0.5 16 0.5C24.5604 0.5 31.5 7.43959 31.5 16Z" fill="#EC5F51" stroke="#D4483A"/>
<circle cx="16" cy="16" r="5.5" fill="white" stroke="#D4483A"/>
</svg>
